# Blender v2.79 (sub 0) OBJ File: 'flames.blend'
# www.blender.org
mtllib flames.mtl
o Cone
v 0.024331 -1.782924 -1.016844
v 0.233453 -1.773084 -0.813118
v 0.476490 -1.836336 -0.828772
v 0.465707 -1.816080 -0.949252
v 0.605876 -1.870257 -0.786351
v 0.731540 -1.692792 -0.504028
v 0.847938 -1.919351 -0.404320
v 0.963852 -1.798011 -0.208977
v 1.030374 -1.695593 0.033288
v 0.978888 -1.814654 0.165989
v 0.968862 -1.823685 0.560373
v 0.844527 -1.821327 0.560679
v 0.704379 -1.803537 0.704615
v 0.577668 -1.798184 0.853060
v 0.353150 -1.840666 0.853943
v 0.207663 -1.920938 1.075324
v 0.008632 -1.879366 1.116270
v -0.123971 -1.775491 1.014275
v -0.468430 -1.762331 0.887470
v -0.636416 -1.781372 0.920454
v -0.649397 -1.775486 0.638849
v -0.959033 -1.936668 0.511162
v -0.941225 -1.741239 0.361223
v 0.046155 0.136491 0.013382
v -0.851234 -1.770079 0.340347
v -1.010017 -1.775471 0.014017
v -0.975608 -1.788377 -0.193977
v -1.036067 -1.704112 -0.328809
v -0.850309 -1.747716 -0.545294
v -0.632100 -1.821767 -0.667940
v -0.556383 -1.796914 -0.826700
v -0.455970 -1.817519 -0.832821
v -0.123577 -1.928736 -1.005669
v 0.012165 -1.485658 -0.572652
v 0.129257 -1.480738 -0.469555
v 0.262825 -1.512364 -0.473727
v 0.268538 -1.502236 -0.528032
v 0.348356 -1.529324 -0.438593
v 0.419176 -1.440592 -0.287699
v 0.483310 -1.553871 -0.226740
v 0.544922 -1.493201 -0.117019
v 0.579417 -1.441992 0.016644
v 0.552440 -1.501523 0.095525
v 0.543772 -1.506039 0.304767
v 0.475669 -1.504859 0.316024
v 0.397607 -1.495965 0.397725
v 0.324518 -1.493288 0.479936
v 0.201155 -1.514529 0.486313
v 0.116362 -1.554665 0.600659
v 0.004316 -1.533879 0.622365
v -0.074516 -1.481941 0.570134
v -0.258795 -1.475361 0.503076
v -0.353893 -1.484882 0.513633
v -0.370116 -1.481939 0.364842
v -0.532922 -1.562530 0.291266
v -0.529954 -1.464816 0.205191
v 0.023077 -0.397490 0.006691
v -0.488613 -1.479236 0.182705
v -0.569239 -1.481932 0.007009
v -0.550801 -1.488385 -0.109519
v -0.577375 -1.446252 -0.188985
v -0.478560 -1.468054 -0.308332
v -0.361468 -1.505079 -0.379388
v -0.313876 -1.492653 -0.466756
v -0.252565 -1.502955 -0.475752
v -0.074319 -1.558564 -0.565831
vt 0.344452 0.000000
vt 0.344452 0.631747
vt 0.264785 0.030916
vt 0.753019 0.634504
vt 0.787543 0.000000
vt 0.787543 0.643912
vt 0.184304 0.000000
vt 0.184304 0.647651
vt 0.104412 0.066357
vt 0.483937 0.000000
vt 0.483937 0.652274
vt 0.415106 0.030791
vt 0.820485 0.564494
vt 0.854400 0.000000
vt 0.854400 0.600288
vt 0.820485 0.000000
vt 0.820485 0.643285
vt 0.787543 0.015439
vt 0.714333 0.625340
vt 0.753019 0.000000
vt 0.753019 0.631701
vt 0.483937 0.628774
vt 0.528379 0.000000
vt 0.528379 0.672453
vt 0.672823 0.000000
vt 0.672823 0.664353
vt 0.632954 0.038860
vt 0.588978 0.623380
vt 0.632954 0.000000
vt 0.632954 0.646643
vt 0.344452 0.612558
vt 0.415106 0.000000
vt 0.415106 0.677954
vt 0.923921 0.000000
vt 0.923921 0.609674
vt 0.898297 0.007841
vt 0.528379 0.481759
vt 0.588978 0.000000
vt 0.588978 0.492698
vt 0.264785 0.000000
vt 0.264785 0.626187
vt 0.184304 0.008195
vt 0.672823 0.628615
vt 0.714333 0.000000
vt 0.714332 0.629031
vt 0.000000 0.621068
vt 0.104412 0.000000
vt 0.104412 0.666539
vt 0.966750 0.000000
vt 0.966750 0.357470
vt 0.923921 0.015408
vt 0.714333 0.990769
vt 0.729908 0.631701
vt 0.729908 0.995232
vt 0.898297 0.000000
vt 0.898297 0.365364
vt 0.854400 0.033227
vt 1.000000 0.357470
vt 1.000000 0.725256
vt 0.962140 0.372934
vt 0.691324 0.950113
vt 0.709173 0.629031
vt 0.709173 0.969164
vt 0.691324 0.629031
vt 0.691324 0.991486
vt 0.672823 0.636277
vt 0.241863 0.980365
vt 0.264138 0.626187
vt 0.264138 0.983745
vt 0.820485 0.956215
vt 0.846272 0.600288
vt 0.846272 0.978174
vt 0.241863 0.626187
vt 0.241863 1.000000
vt 0.218277 0.645748
vt 0.898297 0.962830
vt 0.923721 0.609674
vt 0.923721 0.974645
vt 0.923921 0.705344
vt 0.962140 0.357470
vt 0.962140 0.737825
vt 0.753019 0.631701
vt 0.753019 0.976892
vt 0.739000 0.634890
vt 0.184304 0.899863
vt 0.218277 0.626187
vt 0.218277 0.905681
vt 0.854400 0.717366
vt 0.897967 0.365364
vt 0.897967 0.718471
vt 0.966750 0.355846
vt 0.987198 0.000000
vt 0.991132 0.355846
vt 0.528379 0.844463
vt 0.584241 0.492698
vt 0.584241 0.867402
vn 0.6433 0.3564 -0.6776
vn -0.9715 -0.2323 0.0479
vn 0.6974 0.4246 -0.5773
vn 0.6658 0.3890 -0.6367
vn 0.6949 0.3800 0.6105
vn 0.0075 0.2721 0.9623
vn 0.6911 0.4390 0.5741
vn 0.7115 0.3656 0.6001
vn -0.2818 0.4645 0.8395
vn 0.1359 0.3837 0.9134
vn -0.5266 0.4312 0.7326
vn -0.2416 -0.0525 -0.9690
vn -0.8623 0.4763 -0.1722
vn -0.6164 0.4787 -0.6253
vn -0.8461 0.4111 -0.3392
vn -0.2928 0.4423 -0.8477
vn 0.6053 0.3693 -0.7051
vn -0.9793 -0.1538 -0.1317
vn 0.6956 0.4272 -0.5777
vn 0.6892 0.3967 -0.6063
vn 0.7346 0.3965 0.5505
vn 0.1597 0.3256 0.9319
vn 0.6780 0.4406 0.5884
vn 0.6745 0.3795 0.6333
vn -0.2564 0.4637 0.8481
vn 0.0608 0.4044 0.9126
vn -0.5406 0.4340 0.7207
vn -0.4571 0.0720 -0.8865
vn -0.8659 0.4729 -0.1632
vn -0.6326 0.4762 -0.6108
vn -0.8207 0.4200 -0.3873
vn -0.2906 0.4427 -0.8483
usemtl flames
s off
f 1/1/1 24/2/1 2/3/1
f 3/4/2 24/5/2 4/6/2
f 5/7/3 24/8/3 6/9/3
f 7/10/4 24/11/4 8/12/4
f 9/13/5 24/14/5 10/15/5
f 11/16/6 24/17/6 12/18/6
f 13/19/7 24/20/7 14/21/7
f 15/22/8 24/23/8 16/24/8
f 17/25/9 24/26/9 18/27/9
f 19/28/10 24/29/10 20/30/10
f 21/31/11 24/32/11 22/33/11
f 23/34/12 24/35/12 25/36/12
f 26/37/13 24/38/13 27/39/13
f 28/40/14 24/41/14 29/42/14
f 30/43/15 24/44/15 31/45/15
f 32/46/16 24/47/16 33/48/16
f 34/49/17 57/50/17 35/51/17
f 36/52/18 57/53/18 37/54/18
f 38/55/19 57/56/19 39/57/19
f 40/58/20 57/59/20 41/60/20
f 42/61/21 57/62/21 43/63/21
f 44/64/22 57/65/22 45/66/22
f 46/67/23 57/68/23 47/69/23
f 48/70/24 57/71/24 49/72/24
f 50/73/25 57/74/25 51/75/25
f 52/76/26 57/77/26 53/78/26
f 54/79/27 57/80/27 55/81/27
f 56/82/28 57/83/28 58/84/28
f 59/85/29 57/86/29 60/87/29
f 61/88/30 57/89/30 62/90/30
f 63/91/31 57/92/31 64/93/31
f 65/94/32 57/95/32 66/96/32
