# Blender v2.79 (sub 0) OBJ File: 'set_one.blend'
# www.blender.org
mtllib set_one.mtl
v -0.112943 1.097898 0.634341
v -0.113854 0.000000 -0.887240
v -0.113854 0.953504 -1.000000
v -0.113854 2.000000 -0.713674
v -0.113854 0.449954 -0.602588
v -0.113854 1.262446 1.000000
v -0.113854 0.000000 0.732797
v -0.113854 2.000000 0.669850
v -0.113854 1.289998 0.551278
v -0.113854 1.675614 0.372624
v -0.113854 1.259335 0.096084
v -0.113854 0.812913 0.390762
v -0.113854 0.815692 0.863404
v -0.113854 0.377288 0.559260
v -0.113854 0.091930 0.826846
v -0.113854 0.000000 -0.371605
v -0.113854 0.000000 0.057492
v -0.113854 0.324011 0.164797
v -0.113854 0.418984 -0.163206
v 0.113854 2.000000 0.669850
v 0.113854 2.000000 -0.713674
v 0.113854 0.953504 -1.000000
v 0.113854 0.449954 -0.602588
v 0.113854 0.000000 -0.887240
v 0.113854 0.000000 0.057492
v 0.113854 0.000000 0.732797
v 0.113854 1.262446 1.000000
v 0.113854 1.289998 0.551278
v 0.113854 1.675614 0.372624
v 0.113854 1.259335 0.096084
v 0.113854 0.812913 0.390762
v 0.113854 0.815692 0.863404
v 0.113854 0.377288 0.559260
v 0.113854 0.091930 0.826846
v 0.113854 0.000000 -0.371605
v 0.113854 0.324011 0.164797
v 0.113854 0.418984 -0.163206
vt 0.066987 0.250000
vt 0.007596 0.586824
vt 0.007596 0.413176
vt 0.328990 0.969846
vt 0.178606 0.883022
vt 0.500000 1.000000
vt 0.821394 0.883022
vt 0.671010 0.969846
vt 0.992404 0.586824
vt 0.933013 0.750000
vt 0.066987 0.750000
vt 0.992404 0.413176
vt 0.933013 0.250000
vt 0.500000 0.000000
vt 0.821394 0.116978
vt 0.671010 0.030154
vt 0.328990 0.030154
vt 0.178606 0.116978
vt 0.066987 0.250000
vt 0.007596 0.413176
vt 0.007596 0.586824
vt 0.328990 0.969846
vt 0.500000 1.000000
vt 0.178606 0.883022
vt 0.671010 0.969846
vt 0.821394 0.883022
vt 0.933013 0.750000
vt 0.992404 0.586824
vt 0.992404 0.413176
vt 0.066987 0.750000
vt 0.933013 0.250000
vt 0.821394 0.116978
vt 0.500000 0.000000
vt 0.671010 0.030154
vt 0.328990 0.030154
vt 0.178606 0.116978
vn 1.0000 0.0000 0.0000
vn -1.0000 -0.0000 0.0000
vn 0.0000 -0.5346 0.8451
vn 0.0000 0.5700 -0.8216
vn 0.0000 1.0000 0.0000
vn 0.0000 -0.6840 -0.7295
vn 0.0000 -0.4086 -0.9127
vn 0.0000 0.7151 -0.6990
vn 0.0000 0.9981 0.0613
vn 0.0000 0.4204 0.9074
vn 0.0000 -1.0000 0.0000
vn 0.0000 -0.3144 0.9493
vn 0.0000 0.5533 -0.8330
vn 0.0000 -0.2639 0.9645
vn 0.0000 0.9605 0.2781
vn 0.0000 -0.5509 -0.8346
vn 0.0000 0.6195 0.7850
vn 0.0000 0.4453 -0.8954
vn 0.0000 -1.0000 0.0059
usemtl set_one
s off
f 5/1/1 16/2/1 2/3/1
f 17/4/1 18/5/1 7/6/1
f 7/6/1 14/7/1 15/8/1
f 14/7/1 12/9/1 13/10/1
f 7/6/1 18/5/1 14/7/1
f 14/7/1 18/5/1 12/9/1
f 12/9/1 19/11/1 11/12/1
f 18/5/1 19/11/1 12/9/1
f 10/13/1 8/14/1 9/15/1
f 9/15/1 8/14/1 6/16/1
f 10/13/1 4/17/1 8/14/1
f 16/2/1 5/1/1 19/11/1
f 19/11/1 5/1/1 11/12/1
f 11/12/1 4/17/1 10/13/1
f 4/17/1 11/12/1 3/18/1
f 3/18/1 11/12/1 5/1/1
f 23/19/2 24/20/2 35/21/2
f 25/22/2 26/23/2 36/24/2
f 26/23/2 34/25/2 33/26/2
f 33/26/2 32/27/2 31/28/2
f 26/23/2 33/26/2 36/24/2
f 33/26/2 31/28/2 36/24/2
f 31/28/2 30/29/2 37/30/2
f 36/24/2 31/28/2 37/30/2
f 29/31/2 28/32/2 20/33/2
f 28/32/2 27/34/2 20/33/2
f 29/31/2 20/33/2 21/35/2
f 35/21/2 37/30/2 23/19/2
f 37/30/2 30/29/2 23/19/2
f 30/29/2 29/31/2 21/35/2
f 21/35/2 22/36/2 30/29/2
f 22/36/2 23/19/2 30/29/2
f 2/3/3 23/19/3 5/1/3
f 13/10/4 33/26/4 14/7/4
f 7/6/5 25/22/5 17/4/5
f 14/7/6 34/25/6 15/8/6
f 8/14/7 27/34/7 6/16/7
f 15/8/8 26/23/8 7/6/8
f 6/16/9 28/32/9 9/15/9
f 16/2/5 24/20/5 2/3/5
f 9/15/10 29/31/10 10/13/10
f 4/17/11 20/33/11 8/14/11
f 17/4/12 36/24/12 18/5/12
f 10/13/13 30/29/13 11/12/13
f 3/18/14 21/35/14 4/17/14
f 18/5/15 37/30/15 19/11/15
f 11/12/16 31/28/16 12/9/16
f 5/1/17 22/36/17 3/18/17
f 19/11/18 35/21/18 16/2/18
f 12/9/19 32/27/19 13/10/19
f 2/3/3 24/20/3 23/19/3
f 13/10/4 32/27/4 33/26/4
f 7/6/5 26/23/5 25/22/5
f 14/7/6 33/26/6 34/25/6
f 8/14/7 20/33/7 27/34/7
f 15/8/8 34/25/8 26/23/8
f 6/16/9 27/34/9 28/32/9
f 16/2/5 35/21/5 24/20/5
f 9/15/10 28/32/10 29/31/10
f 4/17/11 21/35/11 20/33/11
f 17/4/12 25/22/12 36/24/12
f 10/13/13 29/31/13 30/29/13
f 3/18/14 22/36/14 21/35/14
f 18/5/15 36/24/15 37/30/15
f 11/12/16 30/29/16 31/28/16
f 5/1/17 23/19/17 22/36/17
f 19/11/18 37/30/18 35/21/18
f 12/9/19 31/28/19 32/27/19
