# Blender v2.79 (sub 0) OBJ File: 'ship.blend'
# www.blender.org
mtllib ship_shield.mtl
v 0.276388 2.188021 0.850649
v -0.723607 2.188020 0.525725
v -0.723607 2.188020 -0.525725
v 0.276388 2.188021 -0.850649
v 0.894426 2.188012 0.000000
v 0.000000 3.347449 0.000000
v 0.951058 1.250000 0.309013
v 0.951058 1.250000 -0.309013
v 0.000000 1.250000 1.000000
v 0.587786 1.250000 0.809017
v -0.951058 1.250000 0.309013
v -0.587786 1.250000 0.809017
v -0.587786 1.250000 -0.809017
v -0.951058 1.250000 -0.309013
v 0.587786 1.250000 -0.809017
v 0.000000 1.250000 -1.000000
v 0.688189 2.352705 0.499997
v -0.262869 2.352708 0.809012
v -0.850648 2.352704 0.000000
v -0.262869 2.352708 -0.809012
v 0.688189 2.352705 -0.499997
v 0.162456 3.034204 0.499995
v 0.525730 3.034198 0.000000
v -0.425323 3.034204 0.309011
v -0.425323 3.034204 -0.309011
v 0.162456 3.034204 -0.499995
vt 0.529708 0.628770
vt 0.522234 0.823976
vt 0.401464 0.696446
vt 0.205948 0.290487
vt 0.170958 0.470018
vt 0.076223 0.290487
vt 0.867586 0.873657
vt 0.804589 0.999998
vt 0.739342 0.805981
vt 0.867586 0.502428
vt 0.860111 0.678452
vt 0.739342 0.587779
vt 0.451152 0.484492
vt 0.529984 0.328130
vt 0.588540 0.502428
vt 0.670907 0.310518
vt 0.690904 0.454529
vt 0.591284 0.157995
vt 0.662122 0.719393
vt 0.049904 0.110958
vt 0.000000 0.290488
vt 0.170958 0.110957
vt 0.049904 0.470018
vt 0.466710 0.502428
vt 0.401465 0.914649
vt 0.324244 0.783033
vt 0.529709 1.000000
vt 0.366639 0.328131
vt 0.449006 0.136219
vt 1.000000 0.575448
vt 1.000000 0.793651
vt 0.965684 0.992380
vt 0.297924 0.000000
vt 0.324244 0.179530
vt 0.324244 0.401445
vt 0.297924 0.580977
vt 0.627806 0.510047
vt 0.662122 0.708775
vt 0.662122 0.926980
vt 0.539882 0.000000
vt 0.324244 0.502428
vn 0.5027 0.3878 0.7726
vn -0.5794 0.3878 0.7169
vn -0.8608 0.3878 -0.3295
vn 0.0474 0.3878 -0.9205
vn 0.8901 0.3878 -0.2394
vn 0.4798 0.8052 -0.3486
vn 0.6863 0.5295 -0.4986
vn 0.5027 0.3878 -0.7726
vn -0.1833 0.8052 -0.5640
vn -0.2622 0.5295 -0.8068
vn -0.5794 0.3878 -0.7169
vn -0.5930 0.8052 0.0000
vn -0.8483 0.5295 0.0000
vn -0.8608 0.3878 0.3295
vn -0.1833 0.8052 0.5640
vn -0.2622 0.5295 0.8068
vn 0.0474 0.3878 0.9205
vn 0.4798 0.8052 0.3486
vn 0.6863 0.5295 0.4986
vn 0.8901 0.3878 0.2394
vn 0.9298 0.1646 -0.3293
vn 0.8057 0.0907 -0.5854
vn 0.6005 0.1646 -0.7825
vn -0.0259 0.1646 -0.9860
vn -0.3077 0.0907 -0.9471
vn -0.5587 0.1646 -0.8129
vn -0.9458 0.1646 -0.2801
vn -0.9959 0.0907 0.0000
vn -0.9458 0.1646 0.2801
vn -0.5587 0.1646 0.8129
vn -0.3077 0.0907 0.9471
vn -0.0259 0.1646 0.9860
vn 0.6005 0.1646 0.7825
vn 0.8057 0.0907 0.5854
vn 0.9298 0.1646 0.3293
vn 0.3085 0.0603 -0.9493
vn -0.8075 0.0603 -0.5867
vn -0.8075 0.0603 0.5867
vn 0.3085 0.0603 0.9493
vn 0.9982 0.0603 0.0000
usemtl shield
s off
f 1/1/1 17/2/1 22/3/1
f 2/4/2 18/5/2 24/6/2
f 3/7/3 19/8/3 25/9/3
f 4/10/4 20/11/4 26/12/4
f 5/13/5 21/14/5 23/15/5
f 23/15/6 26/16/6 6/17/6
f 23/15/7 21/14/7 26/16/7
f 21/14/8 4/18/8 26/16/8
f 26/12/9 25/9/9 6/19/9
f 26/12/10 20/11/10 25/9/10
f 20/11/11 3/7/11 25/9/11
f 25/20/12 24/6/12 6/21/12
f 25/20/13 19/22/13 24/6/13
f 19/22/14 2/4/14 24/6/14
f 24/6/15 22/23/15 6/21/15
f 24/6/16 18/5/16 22/23/16
f 18/24/17 1/1/17 22/3/17
f 22/3/18 23/25/18 6/26/18
f 22/3/19 17/2/19 23/25/19
f 17/2/20 5/27/20 23/25/20
f 8/28/21 21/14/21 5/13/21
f 8/28/22 15/29/22 21/14/22
f 15/29/23 4/18/23 21/14/23
f 16/30/24 20/11/24 4/10/24
f 16/30/25 13/31/25 20/11/25
f 13/31/26 3/7/26 20/11/26
f 14/32/27 19/8/27 3/7/27
f 14/33/28 11/34/28 19/22/28
f 11/34/29 2/4/29 19/22/29
f 12/35/30 18/5/30 2/4/30
f 12/35/31 9/36/31 18/5/31
f 9/37/32 1/1/32 18/24/32
f 10/38/33 17/2/33 1/1/33
f 10/38/34 7/39/34 17/2/34
f 7/39/35 5/27/35 17/2/35
f 15/29/36 16/40/36 4/18/36
f 13/31/37 14/32/37 3/7/37
f 11/34/38 12/35/38 2/4/38
f 9/37/39 10/38/39 1/1/39
f 7/41/40 8/28/40 5/13/40
